<!-- <svg height="512" viewBox="0 0 512 512" width="512" xmlns="http://www.w3.org/2000/svg" xmlns:xlink="http://www.w3.org/1999/xlink"><linearGradient id="a" x1="100%" x2="50%" y1="5.663%" y2="50%"><stop offset="0" stop-color="#007b55"/><stop offset="1" stop-color="#00ab55"/></linearGradient><linearGradient id="b" x1="50%" x2="50%" y1="0%" y2="100%"><stop offset="0" stop-color="#5be584"/><stop offset="1" stop-color="#00ab55"/></linearGradient><g fill="none" fill-rule="evenodd" transform="translate(14 128)"><path d="m92.8065878 83.1065019c44.2888442 22.8889511 46.3079382 23.9345951 46.4006692 23.9799821.012248.008728.642121.333419 44.792743 23.152545-26.071507 48.53952-42.693165 77.265922-49.868472 86.179207-10.758587 13.369926-22.495227 23.492946-36.929824 29.333888-30.3458978 14.261953-68.070062 14.928791-97.201704-2.704011z" fill="url(#a)"/><g fill="url(#b)"><path d="m430.310491 101.726093c-46.270793-80.9559274-94.100378-157.2284394-149.043472-45.3437359-7.516227 14.3833977-12.994566 42.3366008-25.267019 42.3366008v-.1420279c-12.272453 0-17.749057-27.9532032-25.265283-42.3366009-54.94483-111.8847034-102.774415-35.6121915-149.0452076 45.3437359-3.4821132 6.105448-6.8270943 11.9321-9.6895094 16.99601 106.037811-67.1266136 97.11034 135.666494 184 137.277897v.142028c86.891396-1.611403 77.962189-204.4045106 184-137.27965-2.860679-5.062157-6.20566-10.888809-9.689509-16.994257"/><path d="m436 256c26.5088 0 48-21.4912 48-48s-21.4912-48-48-48-48 21.4912-48 48 21.4912 48 48 48"/></g></g></svg>
 -->
 <svg height="512" width="512" xmlns="http://www.w3.org/2000/svg" shape-rendering="geometricPrecision" text-rendering="geometricPrecision" image-rendering="optimizeQuality" fill-rule="evenodd" clip-rule="evenodd" viewBox="0 0 407 511.76"><path fill-rule="nonzero" d="M12.91 194.05C5.96 194.05 0 188.09 0 180.8c0-6.96 5.96-12.91 12.91-12.91h35.11c11.92.33 22.52 2.64 31.46 8.28 9.94 6.29 17.22 15.89 21.19 30.13 0 .34 0 .66.34 1l3.31 13.24h289.77c7.28 0 12.91 5.97 12.91 12.91 0 1.33-.34 2.66-.66 3.98l-33.78 123.99c-1.33 5.95-6.62 9.94-12.59 9.94H148.03c4.64 17.22 9.27 26.48 15.57 30.79 7.61 4.97 20.86 5.3 43.05 4.97h150.01c7.28 0 12.91 5.96 12.91 12.91 0 7.29-5.95 12.92-12.91 12.92H206.97c-27.48.32-44.37-.34-57.94-9.28-13.92-9.27-21.2-25.16-28.49-53.98L76.17 213.92c0-.34 0-.34-.33-.66-1.99-7.3-5.3-12.26-9.94-14.9-4.63-2.99-10.93-4.31-18.21-4.31H12.91zm100.85-84.43L221.6 1.77c2.36-2.36 6.24-2.36 8.62.01l122.82 122.8c3.17 3.58-1.1 8-5.98 12.49l-62.09 62.08h-58.98l-80.61-80.61c-1.55-1.54-4.37-1.26-6.27.64l-3.72 3.75c-1.92 1.91-2.22 4.72-.67 6.26l69.96 69.96h-46.14l-44.77-44.79c-12.32-12.3-12.32-32.45-.01-44.74zm218.39 89.53 38.49-38.51-12.53-12.54 9.22-9.23 15.95 15.96c2.9 2.91 2.9 7.66 0 10.58l-33.74 33.74h-17.39zm-47.68 74.52c0-4.08 4.04-7.39 9.01-7.39 4.98 0 9.01 3.31 9.01 7.39v37.83c0 4.08-4.03 7.39-9.01 7.39-4.97 0-9.01-3.31-9.01-7.39v-37.83zm-53.94 0c0-4.08 4.03-7.39 9-7.39 4.98 0 9.01 3.31 9.01 7.39v37.83c0 4.08-4.03 7.39-9.01 7.39-4.97 0-9-3.31-9-7.39v-37.83zm-53.95 0c0-4.08 4.04-7.39 9.02-7.39 4.97 0 9 3.31 9 7.39v37.83c0 4.08-4.03 7.39-9 7.39-4.98 0-9.02-3.31-9.02-7.39v-37.83zm141.34 174.51c17.55 0 31.78 14.24 31.78 31.79 0 17.56-14.23 31.79-31.78 31.79-17.56 0-31.8-14.23-31.8-31.79 0-17.55 14.24-31.79 31.8-31.79zm-139.42 0c17.54 0 31.78 14.24 31.78 31.79 0 17.56-14.24 31.79-31.78 31.79-17.56 0-31.8-14.23-31.8-31.79 0-17.55 14.24-31.79 31.8-31.79zm-66.9-201.81 29.47 98.82h208.97l27.49-98.82H111.6z"/></svg>